<svg width="140" height="140" viewBox="-20 -20 180 180" fill="none" xmlns="http://www.w3.org/2000/svg">
<path d="M128.263 125.03H119.729V117.835H128.263C129.792 117.835 131 116.534 131 114.887C131 113.24 129.792 111.94 128.263 111.94H119.729V110.899C119.729 109.252 118.522 107.952 116.992 107.952C110.149 107.952 105.238 111.246 103.467 116.708C103.226 116.621 102.984 116.534 102.662 116.534H19.1776V15.8831H120.051V85.2379C120.051 87.9254 122.144 90.1794 124.64 90.1794C127.136 90.1794 129.229 88.0121 129.229 85.2379V10.9415C129.229 8.25403 127.136 6 124.64 6H14.5888C12.0931 6 10 8.16734 10 10.9415V121.476C10 124.163 12.0126 126.417 14.5888 126.417H102.662C102.904 126.417 103.145 126.331 103.387 126.244C105.399 132.573 111.357 135 116.992 135C118.522 135 119.729 133.7 119.729 132.052V131.012H128.263C129.792 131.012 131 129.712 131 128.065C131 126.417 129.792 125.03 128.263 125.03Z" fill="black"/>
<path d="M76.3184 82.2535C76.9088 83.9874 79.4101 83.9874 80.0006 82.2535L83.4626 72.0758C84.2247 69.8384 85.5086 67.8056 87.2126 66.1384C88.9167 64.4712 90.994 63.2155 93.2799 62.4707L103.672 59.0817C105.443 58.5037 105.443 56.0551 103.672 55.4772L93.2746 52.0881C90.989 51.3421 88.9124 50.0853 87.2093 48.4172C85.5062 46.7491 84.2234 44.7156 83.4626 42.4778L80.0006 32.3054C79.8733 31.9257 79.6267 31.595 79.2961 31.3606C78.9655 31.1262 78.5677 31 78.1595 31C77.7513 31 77.3535 31.1262 77.0229 31.3606C76.6922 31.595 76.4457 31.9257 76.3184 32.3054L72.8563 42.4831C72.0948 44.7198 70.8117 46.7523 69.1087 48.4194C67.4056 50.0866 65.3293 51.3426 63.0444 52.0881L52.6474 55.4772C52.2596 55.6018 51.9218 55.8431 51.6823 56.1668C51.4429 56.4904 51.314 56.8798 51.314 57.2794C51.314 57.679 51.4429 58.0684 51.6823 58.3921C51.9218 58.7157 52.2596 58.9571 52.6474 59.0817L63.0444 62.4707C65.3293 63.2162 67.4056 64.4722 69.1087 66.1394C70.8117 67.8065 72.0948 69.839 72.8563 72.0758L76.3184 82.2535ZM50.0012 100.218C50.0782 100.446 50.2265 100.644 50.4249 100.784C50.6234 100.924 50.8621 101 51.1069 101C51.3518 101 51.5904 100.924 51.7889 100.784C51.9874 100.644 52.1357 100.446 52.2127 100.218L54.2899 94.1126C55.2185 91.3909 57.3977 89.2576 60.1781 88.3486L66.4152 86.3151C66.6477 86.2398 66.85 86.0946 66.9933 85.9003C67.1367 85.706 67.2139 85.4724 67.2139 85.2327C67.2139 84.993 67.1367 84.7594 66.9933 84.5651C66.85 84.3708 66.6477 84.2257 66.4152 84.1503L60.1781 82.1169C58.8069 81.6696 57.5608 80.9159 56.5388 79.9154C55.5167 78.9149 54.7468 77.6952 54.2899 76.3528L52.2127 70.2472C52.1357 70.0197 51.9874 69.8217 51.7889 69.6813C51.5904 69.541 51.3518 69.4654 51.1069 69.4654C50.8621 69.4654 50.6234 69.541 50.4249 69.6813C50.2265 69.8217 50.0782 70.0197 50.0012 70.2472L47.924 76.3528C47.4671 77.6952 46.6971 78.9149 45.6751 79.9154C44.6531 80.9159 43.407 81.6696 42.0357 82.1169L35.7986 84.1503C35.5662 84.2257 35.3639 84.3708 35.2205 84.5651C35.0772 84.7594 35 84.993 35 85.2327C35 85.4724 35.0772 85.706 35.2205 85.9003C35.3639 86.0946 35.5662 86.2398 35.7986 86.3151L42.0357 88.3486C43.407 88.7958 44.6531 89.5495 45.6751 90.55C46.6971 91.5505 47.4671 92.7703 47.924 94.1126L50.0012 100.218Z" fill="black"/>
</svg>
